<svg id="Calque_1" data-name="Calque 1" xmlns="http://www.w3.org/2000/svg" viewBox="0 0 85.25 91.81"><defs><style>.cls-1{fill:#34404f;}.cls-2{fill:#015eff;}.cls-3{fill:none;stroke:#015eff;stroke-miterlimit:10;}.cls-4{fill:#fff;}</style></defs><title>logo-win-mechi</title><path class="cls-1" d="M13.36,86.82a4.17,4.17,0,0,0-.13-1,2.35,2.35,0,0,0-.39-.83,1.78,1.78,0,0,0-.66-.56,2,2,0,0,0-.95-.2,2,2,0,0,0-1.36.45A1.67,1.67,0,0,0,9.37,86a2.51,2.51,0,0,0,.35,1.45,5,5,0,0,0,.84.95c.18.16.36.33.53.51a3.87,3.87,0,0,1,.46.59,2.91,2.91,0,0,1,.34.71,2.72,2.72,0,0,1,.14.89v.47h-1.5v-.36a2.07,2.07,0,0,0-.4-1.29,8.55,8.55,0,0,0-.93-1,5.27,5.27,0,0,1-1-1.15,2.88,2.88,0,0,1-.43-1.62A3.55,3.55,0,0,1,8,84.75a3.05,3.05,0,0,1,.71-1,3,3,0,0,1,1.09-.64,4.2,4.2,0,0,1,1.4-.22A3.43,3.43,0,0,1,13.89,84a3.59,3.59,0,0,1,.72,1.25,5.09,5.09,0,0,1,.25,1.59ZM10.18,93.3h2.11v2.11H10.18Z" transform="translate(-7.77 -12)"/><path class="cls-1" d="M29.16,95.41a2.05,2.05,0,0,1,.37.63,2.34,2.34,0,0,1,.15.79A2.14,2.14,0,0,1,29.35,98a2.89,2.89,0,0,1-1.08,1,6.43,6.43,0,0,1-1.93.69,14.13,14.13,0,0,1-2.91.25,11.71,11.71,0,0,1-3.17-.35,5.11,5.11,0,0,1-2-1,3.16,3.16,0,0,1-1-1.43,5.48,5.48,0,0,1-.28-1.8V92.41h1.55V95a2.78,2.78,0,0,0,1.16,2.47,6.94,6.94,0,0,0,3.77.79,15.3,15.3,0,0,0,1.84-.11,9.21,9.21,0,0,0,1.53-.3,3,3,0,0,0,1-.5.87.87,0,0,0,.38-.7,1,1,0,0,0-.44-.78,4.8,4.8,0,0,0-1.11-.59c-.43-.17-.9-.33-1.39-.47L24,94.47V92.94a13.26,13.26,0,0,0,4.58.89h1.91a.67.67,0,0,1,.76.76.9.9,0,0,1-.18.65.84.84,0,0,1-.58.17ZM21,102.8a1,1,0,1,1,.29.71A1,1,0,0,1,21,102.8Zm2.47,0a.94.94,0,0,1,.29-.71,1,1,0,0,1,.71-.3,1,1,0,1,1,0,2,1,1,0,0,1-.71-.3A.94.94,0,0,1,23.43,102.8Z" transform="translate(-7.77 -12)"/><path class="cls-1" d="M31.14,93.83c.42,0,.77,0,1.06,0a1.59,1.59,0,0,0,.7-.18.81.81,0,0,0,.37-.42,2.12,2.12,0,0,0,.11-.75V89h1.56v2.72a5.75,5.75,0,0,0,.06.87,1.26,1.26,0,0,0,.26.65,1.38,1.38,0,0,0,.59.42,2.92,2.92,0,0,0,1,.15,5.25,5.25,0,0,0,.73,0,1,1,0,0,0,.52-.18.76.76,0,0,0,.31-.42,2.12,2.12,0,0,0,.11-.75V89h1.56v2.7a5.75,5.75,0,0,0,.06.87,1.73,1.73,0,0,0,.25.65,1.21,1.21,0,0,0,.5.42,2,2,0,0,0,.82.15h1.6V88.09h1.56v7.32H41.76a1.91,1.91,0,0,1-1.19-.35,1.73,1.73,0,0,1-.59-.89,1.72,1.72,0,0,1-1.07,1,5.89,5.89,0,0,1-1.75.23,4.66,4.66,0,0,1-1.08-.11,2.4,2.4,0,0,1-.72-.28,1.63,1.63,0,0,1-.45-.41,2.4,2.4,0,0,1-.27-.46,1.94,1.94,0,0,1-.43.64,1.73,1.73,0,0,1-.67.38,3.7,3.7,0,0,1-1,.19c-.4,0-.88,0-1.44,0h-.62a.67.67,0,0,1-.76-.76A.86.86,0,0,1,29.9,94a.84.84,0,0,1,.58-.17ZM37,84.9a1,1,0,1,1,.3.71A.94.94,0,0,1,37,84.9Zm1.28-2.28a1,1,0,0,1,1-1,1,1,0,1,1,0,2,1,1,0,0,1-.71-.3A.94.94,0,0,1,38.25,82.62Zm1.19,2.28a1,1,0,1,1,.3.71A.94.94,0,0,1,39.44,84.9Z" transform="translate(-7.77 -12)"/><path class="cls-1" d="M51.55,94.59a.86.86,0,0,1-.19.65.83.83,0,0,1-.57.17h-.5a4.84,4.84,0,0,1-1.11-.12,1.92,1.92,0,0,1-1.41-1.24,3.54,3.54,0,0,1-.2-1.26v-11h1.56V92.37a2,2,0,0,0,.25,1.13c.16.22.53.33,1.1.33h.31A.67.67,0,0,1,51.55,94.59Z" transform="translate(-7.77 -12)"/><path class="cls-1" d="M50.77,95.41a.67.67,0,0,1-.76-.76.89.89,0,0,1,.18-.65.79.79,0,0,1,.58-.17h.78a2,2,0,0,0,.47-.06,1.2,1.2,0,0,0,.49-.25A2.25,2.25,0,0,0,53,93a3.85,3.85,0,0,0,.45-.91,9.37,9.37,0,0,1,.92-2,4.92,4.92,0,0,1,1-1.16,2.77,2.77,0,0,1,1-.54,4.13,4.13,0,0,1,1-.14,3.27,3.27,0,0,1,1.33.28,3.07,3.07,0,0,1,1,.78,3.75,3.75,0,0,1,.7,1.2,4.24,4.24,0,0,1,.26,1.55,3.94,3.94,0,0,1-.79,2.6,2.94,2.94,0,0,1-2.42,1,5.79,5.79,0,0,1-1.81-.31,6.88,6.88,0,0,1-1.88-1,2.53,2.53,0,0,1-.5.59,1.71,1.71,0,0,1-.54.33,2.4,2.4,0,0,1-.59.13c-.2,0-.42,0-.65,0ZM59.2,92a2.79,2.79,0,0,0-.12-.81,2,2,0,0,0-.36-.7,1.71,1.71,0,0,0-.58-.49,1.69,1.69,0,0,0-.8-.18,2,2,0,0,0-1.46.7A7,7,0,0,0,54.62,93a7.52,7.52,0,0,0,1.4.73,3.67,3.67,0,0,0,1.42.28,1.76,1.76,0,0,0,1.28-.46A2,2,0,0,0,59.2,92Z" transform="translate(-7.77 -12)"/><path class="cls-1" d="M79.11,95.41a1.74,1.74,0,0,1-1-.28,2,2,0,0,1-.6-.65v.7a6,6,0,0,1-.35,2.15,3.57,3.57,0,0,1-1,1.46,4.18,4.18,0,0,1-1.64.84,8.62,8.62,0,0,1-2.2.26,5.67,5.67,0,0,1-3.92-1.18A4.28,4.28,0,0,1,67,95.33V92.41h1.56V95a3.08,3.08,0,0,0,.94,2.57,4.42,4.42,0,0,0,2.77.74,7.6,7.6,0,0,0,1.63-.15A2.66,2.66,0,0,0,75,97.68a2,2,0,0,0,.66-1,5.24,5.24,0,0,0,.2-1.56V90.28h1.56v1.46a5.75,5.75,0,0,0,.06.87,1.57,1.57,0,0,0,.24.65,1.15,1.15,0,0,0,.5.42,2.06,2.06,0,0,0,.85.15.68.68,0,0,1,.77.76.9.9,0,0,1-.19.65A.84.84,0,0,1,79.11,95.41Zm-7.73-6.78a1,1,0,1,1,.3.71A1,1,0,0,1,71.38,88.63Z" transform="translate(-7.77 -12)"/><path class="cls-1" d="M79.1,95.41a.67.67,0,0,1-.76-.76.9.9,0,0,1,.18-.65.84.84,0,0,1,.58-.17h3V88.09h1.56v7.32Zm.75,2.87a1,1,0,1,1,2,0,1,1,0,0,1-.3.71.94.94,0,0,1-.71.29,1,1,0,0,1-1-1Zm2.48,0a1,1,0,0,1,.29-.72,1,1,0,0,1,.71-.29,1,1,0,0,1,1,1A1,1,0,0,1,84,99a.94.94,0,0,1-.71.29,1,1,0,0,1-1-1Z" transform="translate(-7.77 -12)"/><path class="cls-1" d="M89.17,95.41a5.43,5.43,0,0,1-1.38-.17,2.87,2.87,0,0,1-1.1-.56,2.82,2.82,0,0,1-.75-1,4.14,4.14,0,0,1-.27-1.6,4.53,4.53,0,0,1,.25-1.49,3.94,3.94,0,0,1,.72-1.3,3.56,3.56,0,0,1,1.18-.91A3.6,3.6,0,0,1,89.43,88a3.53,3.53,0,0,1,1.7.37,3,3,0,0,1,1.11,1,4.53,4.53,0,0,1,.6,1.56,10.22,10.22,0,0,1,.18,2v1.78a5.94,5.94,0,0,1-.38,2.33,3.34,3.34,0,0,1-1.08,1.43,4.11,4.11,0,0,1-1.73.71,12.36,12.36,0,0,1-2.3.19h-.8V97.8h.59c.61,0,1.16,0,1.66-.07a3.69,3.69,0,0,0,1.3-.35,1.9,1.9,0,0,0,.84-.77,2.68,2.68,0,0,0,.31-1.39v-.36a4.34,4.34,0,0,1-.9.38A4.75,4.75,0,0,1,89.17,95.41Zm-2-3.54a1.86,1.86,0,0,0,.59,1.55,2.4,2.4,0,0,0,1.54.47,3.81,3.81,0,0,0,1.27-.19,3,3,0,0,0,.84-.42v-.7a6.75,6.75,0,0,0-.11-1.22,2.84,2.84,0,0,0-.35-1,1.81,1.81,0,0,0-1.61-.88,2,2,0,0,0-1,.23,2.07,2.07,0,0,0-.67.57,2.58,2.58,0,0,0-.38.76A2.94,2.94,0,0,0,87.19,91.87Z" transform="translate(-7.77 -12)"/><path class="cls-1" d="M57.72,44,51,47.65a1.89,1.89,0,0,1-1.7,0L32.55,39.94a1.92,1.92,0,0,1-1.11-1.74V27.27a1.93,1.93,0,0,1,1.06-1.72l16.77-8.38a1.91,1.91,0,0,1,1.71,0l16.76,8.38a1.93,1.93,0,0,1,1.06,1.72v3a1.92,1.92,0,0,0,1,1.66l.85.48a1.91,1.91,0,0,0,2.86-1.66V24.6a1.9,1.9,0,0,0-1.06-1.71L51,12.2a1.89,1.89,0,0,0-1.7,0L27.83,22.89a1.92,1.92,0,0,0-1.06,1.71V40.23A1.92,1.92,0,0,0,27.85,42l21.42,10.4a1.9,1.9,0,0,0,1.69,0l8.6-4.29a1.91,1.91,0,0,0,1-2l-.09-.6A1.91,1.91,0,0,0,57.72,44Z" transform="translate(-7.77 -12)"/><path class="cls-2" d="M39.45,34v1a1.91,1.91,0,0,0,2.77,1.71l7.06-3.53a1.93,1.93,0,0,1,1.69,0L66.84,40.8a1.92,1.92,0,0,1,1,2.09c-.85,4.34-4.38,17.18-17,22.88a1.88,1.88,0,0,1-1.59,0C47,64.64,40.16,60.69,35.76,50.82a1.87,1.87,0,0,0-1-1l-1.56-.63a1.91,1.91,0,0,0-2.43,2.63c2.86,5.69,9,15.28,18.69,18.73a2,2,0,0,0,1.42-.06c3.65-1.62,20-10,21.24-30.46A1.91,1.91,0,0,0,71,38.21L50.92,28.47a1.93,1.93,0,0,0-1.61,0L40.6,32.25A1.93,1.93,0,0,0,39.45,34Z" transform="translate(-7.77 -12)"/><circle class="cls-3" cx="42.18" cy="28.59" r="3.87"/><circle class="cls-2" cx="42.18" cy="28.59" r="2"/><circle class="cls-4" cx="43.18" cy="26.86" r="0.97"/></svg>